{"accessors" : [{"bufferView" : 0, "byteOffset" : 0, "componentType" : 5123, "count" : 45342, "type" : "SCALAR", "max" : [18127], "min" : [0]}, {"bufferView" : 1, "byteOffset" : 0, "componentType" : 5126, "count" : 18128, "type" : "VEC3", "max" : [7.499997138977051, 1.649865984916687, 0.6000000238418579], "min" : [-1.649999976158142, -1.649865984916687, -0.737142026424408], "name" : "POSITION"}, {"bufferView" : 1, "byteOffset" : 12, "componentType" : 5126, "count" : 18128, "type" : "VEC2", "max" : [7.55194616317749, 6.003995895385742], "min" : [-7.567434787750244, -4.068171977996826], "name" : "TEXCOORD_0"}, {"bufferView" : 1, "byteOffset" : 20, "componentType" : 5126, "count" : 18128, "type" : "VEC3", "max" : [1.0000044107437134, 1.0000044107437134, 1.0000044107437134], "min" : [-1.0000044107437134, -1.0000044107437134, -1.0000044107437134], "name" : "NORMAL"}], "asset" : {"generator" : "Aspose.3D 24.9.1", "version" : "2.0"}, "buffers" : [{"uri" : "data:application/octet-stream;base64,", "byteLength" : 670788}], "bufferViews" : [{"buffer" : 0, "byteOffset" : 0, "byteLength" : 90684, "target" : 34963}, {"buffer" : 0, "byteOffset" : 90688, "byteLength" : 580096, "byteStride" : 32, "target" : 34962}], "meshes" : [{"primitives" : [{"attributes" : {"POSITION" : 1, "TEXCOORD_0" : 2, "NORMAL" : 3}, "indices" : 0, "mode" : 4}], "name" : ""}], "nodes" : [{"mesh" : 0, "name" : "suntour_fork_wrench"}], "scene" : 0, "scenes" : [{"nodes" : [0]}]}