{"accessors" : [{"bufferView" : 0, "byteOffset" : 0, "componentType" : 5123, "count" : 636, "type" : "SCALAR", "max" : [409], "min" : [0]}, {"bufferView" : 1, "byteOffset" : 0, "componentType" : 5126, "count" : 410, "type" : "VEC3", "max" : [6.350852966308594, 6.350852966308594, 15], "min" : [-6.350852966308594, -6.350852966308594, 0], "name" : "POSITION"}, {"bufferView" : 1, "byteOffset" : 12, "componentType" : 5126, "count" : 410, "type" : "VEC2", "max" : [6.350852966308594, 6.5], "min" : [-6.350852966308594, -4.5], "name" : "TEXCOORD_0"}, {"bufferView" : 1, "byteOffset" : 20, "componentType" : 5126, "count" : 410, "type" : "VEC3", "max" : [0.9752169251441956, 0.9752169251441956, 1.0000044107437134], "min" : [-0.9752169251441956, -0.9752169251441956, -1.0000044107437134], "name" : "NORMAL"}], "asset" : {"generator" : "Aspose.3D 24.9.1", "version" : "2.0"}, "buffers" : [{"uri" : "data:application/octet-stream;base64,", "byteLength" : 14400}], "bufferViews" : [{"buffer" : 0, "byteOffset" : 0, "byteLength" : 1272, "target" : 34963}, {"buffer" : 0, "byteOffset" : 1276, "byteLength" : 13120, "byteStride" : 32, "target" : 34962}], "meshes" : [{"primitives" : [{"attributes" : {"POSITION" : 1, "TEXCOORD_0" : 2, "NORMAL" : 3}, "indices" : 0, "mode" : 4}], "name" : ""}], "nodes" : [{"mesh" : 0, "name" : "Cuerpo15"}], "scene" : 0, "scenes" : [{"nodes" : [0]}]}